 <svg  version="1.0" xmlns="http://www.w3.org/2000/svg"  width="171.000000pt" height="156.000000pt" viewBox="0 0 171.000000 156.000000"  preserveAspectRatio="xMidYMid meet">  <g transform="translate(0.000000,156.000000) scale(0.100000,-0.100000)" fill="#ffffff" stroke="none"> <path d="M781 1519 c-51 -20 -83 -54 -138 -147 -188 -320 -343 -599 -349 -629 -17 -88 24 -176 98 -212 80 -38 178 -21 235 41 11 12 43 61 70 108 27 47 113 197 192 334 149 258 162 290 147 371 -9 45 -59 103 -111 126 -43 20 -106 23 -144 8z"/> <path d="M1095 966 c-16 -8 -44 -29 -62 -48 -43 -45 -364 -603 -375 -653 -34 -151 127 -281 267 -216 58 27 81 56 190 246 54 94 111 191 126 218 16 26 29 49 29 51 0 2 18 33 40 70 63 103 70 170 26 254 -37 72 -165 113 -241 78z"/> <path d="M121 398 c-147 -73 -143 -285 7 -349 55 -24 106 -24 157 0 76 35 115 95 115 177 0 142 -152 235 -279 172z"/> <path d="M1401 398 c-24 -11 -56 -39 -71 -60 -115 -158 59 -371 235 -289 76 35 115 95 115 176 0 55 -14 92 -48 129 -61 64 -154 82 -231 44z"/> </g> </svg> 